<svg width="100" height="124" viewBox="0 0 100 124" fill="none" xmlns="http://www.w3.org/2000/svg">
<g opacity="0.75">
<path d="M78.9603 66.498H3.76904L6.09707 79.7328L6.72832 83.3205L8.937 95.8794L9.56825 99.4671L12.1594 114.196H86.6274L89.2186 99.4671L89.8498 95.8794L92.0585 83.3205L92.6897 79.7328L95.0178 66.498H78.9603ZM74.4955 70.0857L73.2603 79.7328H59.6775V70.0857H74.494H74.4955ZM71.1969 95.8794H59.679V83.3205H72.8016L71.1969 95.8794ZM25.9823 83.3205H39.1049V95.8794H27.5871L25.9823 83.3205ZM43.0837 83.3205H55.6988V95.8794H43.0837V83.3205ZM55.6988 70.0857V79.7328H43.0837V70.0857H55.6988ZM39.1049 70.0857V79.7328H25.5222L24.287 70.0857H39.1035H39.1049ZM8.42796 70.0857H20.2838L21.5175 79.7328H10.1233L8.42796 70.0857ZM10.756 83.3205H21.9777L23.5838 95.8794H12.9647L10.756 83.3205ZM15.5558 110.608L13.5959 99.4671H24.0411L25.4661 110.608H15.5544H15.5558ZM29.4722 110.608L28.0472 99.4671H39.1064V110.608H29.4736H29.4722ZM43.0837 110.608V99.4671H55.6988V110.608H43.0837ZM59.6775 110.608V99.4671H70.7367L69.3117 110.608H59.679H59.6775ZM83.2281 110.608H73.3164L74.7414 99.4671H85.1866L83.2267 110.608H83.2281ZM85.8193 95.8794H75.2015L76.8077 83.3205H88.0294L85.8193 95.8794ZM77.2664 79.7328L78.5002 70.0857H90.356L88.6577 79.7328H77.265H77.2664Z" fill="#CCD2D6"/>
</g>
<g opacity="0.5">
<path d="M99.5742 53.3502V63.9205C99.5742 65.3455 98.4195 66.4987 96.996 66.4987H3.01084C1.58728 66.4987 0.432617 65.3455 0.432617 63.9205V53.3502C0.432617 51.9266 1.58728 50.772 3.01084 50.772H13.9162C13.525 51.7771 13.3122 52.8728 13.3122 54.016C13.3122 56.8602 14.6337 59.3953 16.6957 61.0403C18.2314 62.2669 20.1784 63.0016 22.2979 63.0016C24.4174 63.0016 26.363 62.2683 27.8972 61.0403C29.9593 59.3953 31.2807 56.8616 31.2807 54.016C31.2807 52.8728 31.0665 51.7785 30.6768 50.772H69.33C68.9418 51.7771 68.7275 52.8728 68.7275 54.016C68.7275 56.8602 70.049 59.3953 72.111 61.0403C73.6467 62.2669 75.5922 63.0016 77.7103 63.0016C79.8284 63.0016 81.7754 62.2683 83.3097 61.0403C85.3731 59.3953 86.6931 56.8616 86.6931 54.016C86.6931 52.8728 86.4789 51.7785 86.0906 50.772H96.996C98.4195 50.772 99.5742 51.9266 99.5742 53.3502Z" fill="#CCD2D6"/>
</g>
<g opacity="0.5">
<path d="M87.5739 114.197H12.4344C11.2177 114.197 10.2314 115.183 10.2314 116.4V121.237C10.2314 122.454 11.2177 123.44 12.4344 123.44H87.5739C88.7905 123.44 89.7768 122.454 89.7768 121.237V116.4C89.7768 115.183 88.7905 114.197 87.5739 114.197Z" fill="#CCD2D6"/>
</g>
<path d="M86.9889 114.625H11.7962L3.25488 66.0642H95.5317L86.9904 114.625H86.9889ZM12.521 113.762H86.2656L94.5036 66.927H4.28301L12.521 113.762ZM83.5911 111.037H72.8267L74.3624 99.0333H85.702L83.5911 111.037ZM73.8073 110.174H82.8663L84.6738 99.896H75.1216L73.8059 110.174H73.8073ZM69.692 111.037H59.2482V99.0333H71.2291L69.6934 111.037H69.692ZM60.111 110.174H68.9327L70.2484 99.896H60.111V110.174ZM56.1322 111.037H42.6544V99.0333H56.1322V111.037ZM43.5172 110.174H55.2694V99.896H43.5172V110.174ZM39.5384 111.037H29.0946L27.5589 99.0333H39.5398V111.037H39.5384ZM29.8539 110.174H38.6756V99.896H28.5382L29.8539 110.174ZM25.9585 111.037H15.1941L13.0832 99.0333H24.4228L25.9585 111.037ZM15.9188 110.174H24.9778L23.6621 99.896H14.1099L15.9174 110.174H15.9188ZM86.1837 96.3084H74.7132L76.4301 82.8867H88.5448L86.1837 96.3084ZM75.6939 95.4456H85.4604L87.5181 83.7494H77.1908L75.6954 95.4456H75.6939ZM71.5785 96.3084H59.2497V82.8867H73.294L71.5785 96.3084ZM60.1124 95.4456H70.8193L72.3133 83.7494H60.1124V95.4456ZM56.1336 96.3084H42.6558V82.8867H56.1336V96.3084ZM43.5186 95.4456H55.2709V83.7494H43.5186V95.4456ZM39.5398 96.3084H27.2109L25.4955 82.8867H39.5398V96.3084ZM27.9702 95.4456H38.6771V83.7494H26.4762L27.9702 95.4456ZM24.0762 96.3084H12.6044L10.2447 82.8867H22.3593L24.0762 96.3084ZM13.3291 95.4456H23.097L21.6015 83.7494H11.2743L13.3305 95.4456H13.3291ZM89.025 80.1618H76.781L78.124 69.6519H90.8742L89.025 80.1618ZM77.7602 79.299H88.3003L89.8461 70.5146H78.8833L77.7602 79.299ZM73.6434 80.1618H59.2497V69.6519H74.9879L73.642 80.1618H73.6434ZM60.1124 79.299H72.8827L74.0072 70.5146H60.111V79.299H60.1124ZM56.1336 80.1618H42.6558V69.6519H56.1336V80.1618ZM43.5186 79.299H55.2709V70.5146H43.5186V79.299ZM39.5398 80.1618H25.1461L23.8001 69.6519H39.5384V80.1618H39.5398ZM25.9067 79.299H38.6771V70.5146H24.7808L25.9053 79.299H25.9067ZM22.0114 80.1618H9.76587L7.91812 69.6519H20.6683L22.0114 80.1618ZM10.4892 79.299H21.0307L19.9076 70.5146H8.94481L10.4892 79.299Z" fill="#CCD2D6"/>
<path d="M96.9947 66.9291H3.00961C1.35023 66.9291 0 65.5788 0 63.9195V53.3492C0 51.6898 1.35023 50.3396 3.00961 50.3396H14.5447L14.3161 50.9277C13.9351 51.9098 13.7409 52.948 13.7409 54.0149C13.7409 56.632 14.9143 59.0693 16.9619 60.7014C18.4905 61.9222 20.3339 62.5678 22.2938 62.5678C24.2537 62.5678 26.0971 61.9222 27.6242 60.7014C29.6719 59.0693 30.8452 56.632 30.8452 54.0149C30.8452 52.9494 30.6511 51.9112 30.27 50.9277L30.0429 50.3396H69.9557L69.7285 50.9263C69.3475 51.9098 69.1548 52.9494 69.1548 54.0135C69.1548 56.6306 70.3281 59.0679 72.3758 60.6999C73.9043 61.9207 75.7463 62.5664 77.7062 62.5664C79.6661 62.5664 81.5096 61.9207 83.0366 60.6999C85.0843 59.0679 86.2576 56.632 86.2576 54.0135C86.2576 52.9494 86.0649 51.9112 85.6839 50.9248L85.4567 50.3381H96.9904C98.6498 50.3381 100 51.6884 100 53.3477V63.918C100 65.5774 98.6498 66.9276 96.9904 66.9276L96.9947 66.9291ZM3.01104 51.2009C1.82762 51.2009 0.864202 52.1643 0.864202 53.3477V63.918C0.864202 65.1014 1.82762 66.0649 3.01104 66.0649H96.9947C98.1781 66.0649 99.1415 65.1014 99.1415 63.918V53.3477C99.1415 52.1643 98.1781 51.2009 96.9947 51.2009H86.6962C86.9795 52.1082 87.1233 53.0515 87.1233 54.0135C87.1233 56.8966 85.8306 59.5783 83.5773 61.3743C81.8949 62.7188 79.866 63.4291 77.7091 63.4291C75.5522 63.4291 73.5218 62.7188 71.8394 61.3743C69.5862 59.5769 68.2934 56.8951 68.2934 54.0135C68.2934 53.0515 68.4372 52.1082 68.7205 51.2009H31.2824C31.5671 52.1068 31.7094 53.0501 31.7094 54.0135C31.7094 56.8951 30.4167 59.5769 28.1635 61.3743C26.4825 62.7188 24.4521 63.4291 22.2952 63.4291C20.1383 63.4291 18.0821 62.6987 16.4241 61.3743C14.1709 59.5769 12.8796 56.8951 12.8796 54.0135C12.8796 53.0501 13.0234 52.1068 13.3067 51.2009H3.00961H3.01104ZM87.5719 123.87H12.4324C10.9801 123.87 9.79811 122.688 9.79811 121.236V116.398C9.79811 114.946 10.9801 113.764 12.4324 113.764H87.5719C89.0242 113.764 90.2062 114.946 90.2062 116.398V121.236C90.2062 122.688 89.0242 123.87 87.5719 123.87ZM12.4324 114.627C11.4561 114.627 10.6609 115.422 10.6609 116.398V121.236C10.6609 122.212 11.4561 123.007 12.4324 123.007H87.5719C88.5483 123.007 89.3434 122.212 89.3434 121.236V116.398C89.3434 115.422 88.5483 114.627 87.5719 114.627H12.4324Z" fill="#CCD2D6"/>
<g opacity="0.25">
<path d="M31.2805 54.0115C31.2805 56.8557 29.959 59.3908 27.897 61.0358C26.3613 62.2624 24.4158 62.9972 22.2977 62.9972C20.1796 62.9972 18.2312 62.2638 16.6955 61.0358C14.6335 59.3908 13.312 56.8572 13.312 54.0115C13.312 52.8683 13.5263 51.7726 13.9159 50.7675C14.3775 49.574 15.0879 48.5056 15.9808 47.6227C16.208 47.397 16.4453 47.187 16.694 46.9872C17.505 46.3372 18.4325 45.8267 19.4405 45.4931C20.3378 45.1912 21.2969 45.0287 22.2948 45.0287C22.9491 45.0287 23.5875 45.0991 24.2001 45.2329C24.2317 45.2386 24.2634 45.2458 24.2964 45.253C25.6366 45.5578 26.8603 46.1603 27.8956 46.9886C29.1279 47.9736 30.0956 49.2749 30.6751 50.7689C31.0662 51.7755 31.2791 52.8698 31.2791 54.0129L31.2805 54.0115Z" fill="#CCD2D6"/>
</g>
<g opacity="0.5">
<path d="M22.2953 58.3489C24.6897 58.3489 26.6307 56.4079 26.6307 54.0135C26.6307 51.6191 24.6897 49.6781 22.2953 49.6781C19.901 49.6781 17.96 51.6191 17.96 54.0135C17.96 56.4079 19.901 58.3489 22.2953 58.3489Z" fill="#CCD2D6"/>
</g>
<g opacity="0.75">
<path d="M26.9403 34.7014C25.1414 38.1884 24.4225 41.9759 24.2024 45.2328C23.5899 45.1005 22.9514 45.0286 22.2972 45.0286C21.2993 45.0286 20.3401 45.1926 19.4429 45.4931C19.6658 41.2756 20.6148 36.1623 23.3224 31.489L26.9417 34.6999L26.9403 34.7014Z" fill="#CCD2D6"/>
</g>
<path d="M18.9771 46.1047L19.0101 45.4705C19.2948 40.0653 20.6192 35.2899 22.9472 31.2723L23.2118 30.8151L27.4767 34.5997L27.3228 34.8974C25.8029 37.8437 24.897 41.3293 24.631 45.2606L24.598 45.7596L24.1091 45.6532C23.5166 45.5252 22.9069 45.459 22.2958 45.459C21.3669 45.459 20.4524 45.6071 19.5781 45.9005L18.9771 46.1018V46.1047ZM23.4332 32.1667C21.4215 35.8133 20.2367 40.0926 19.9088 44.904C21.1699 44.5733 22.5115 44.51 23.8071 44.7199C24.1105 40.9985 24.9833 37.6668 26.4054 34.8039L23.4347 32.1667H23.4332Z" fill="#CCD2D6"/>
<g opacity="0.25">
<path d="M86.6917 54.0129C86.6917 56.8572 85.3717 59.3923 83.3082 61.0373C81.7725 62.2638 79.827 62.9986 77.7089 62.9986C75.5908 62.9986 73.6438 62.2653 72.1095 61.0373C70.0475 59.3923 68.7261 56.8586 68.7261 54.0129C68.7261 52.8698 68.9403 51.7741 69.3286 50.7689C69.7916 49.5755 70.5005 48.5071 71.3934 47.6242C71.6206 47.3984 71.8579 47.1885 72.1081 46.9886C73.3922 45.9619 74.9624 45.2818 76.6836 45.0862C77.0201 45.0488 77.3623 45.0287 77.7089 45.0287C78.3977 45.0287 79.0677 45.1063 79.7119 45.253C80.3115 45.3896 80.8896 45.5866 81.4375 45.8368C82.1104 46.1431 82.7388 46.5313 83.3096 46.9886C84.5434 47.9736 85.5111 49.2749 86.0906 50.7689C86.4789 51.7755 86.6931 52.8698 86.6931 54.0129H86.6917Z" fill="#CCD2D6"/>
</g>
<path d="M22.2955 63.4287C20.1674 63.4287 18.0823 62.6982 16.4244 61.3739C14.1712 59.5764 12.8799 56.8947 12.8799 54.0131C12.8799 52.8383 13.0927 51.6951 13.514 50.6138C13.9943 49.37 14.7233 48.2613 15.6781 47.3195C15.9111 47.0894 16.1555 46.8708 16.4244 46.6537C17.29 45.9606 18.2592 45.4343 19.306 45.0863C20.2666 44.7642 21.2731 44.6003 22.2969 44.6003C22.9656 44.6003 23.6342 44.6708 24.2827 44.8117C24.3086 44.816 24.3359 44.8218 24.3618 44.8275L24.3863 44.8333C25.7624 45.1467 27.0666 45.7751 28.1652 46.6537C29.4694 47.6962 30.4774 49.0666 31.077 50.6152C31.4969 51.698 31.7097 52.8426 31.7097 54.0145C31.7097 56.8961 30.417 59.5779 28.1637 61.3753C26.4828 62.7198 24.4524 63.4301 22.2955 63.4301V63.4287ZM22.2955 45.4602C21.3666 45.4602 20.4521 45.6083 19.5778 45.9016C18.6273 46.218 17.7473 46.6954 16.9636 47.3238C16.7177 47.5208 16.4963 47.7192 16.2849 47.9291C15.4164 48.7862 14.755 49.7941 14.3178 50.9229C13.9353 51.905 13.7426 52.9447 13.7426 54.0102C13.7426 56.6272 14.916 59.0645 16.9636 60.6966C18.4922 61.9174 20.3356 62.563 22.2955 62.563C24.2554 62.563 26.0989 61.9174 27.6259 60.6966C29.6736 59.0645 30.8469 56.6272 30.8469 54.0102C30.8469 52.9447 30.6528 51.9065 30.2718 50.9229C29.7268 49.5152 28.8122 48.2714 27.6259 47.3238C26.628 46.5257 25.4446 45.9549 24.2008 45.6716L24.1691 45.6644C24.1576 45.6615 24.1461 45.6586 24.1346 45.6572L24.1102 45.6529C23.5178 45.5249 22.9081 45.4588 22.2969 45.4588L22.2955 45.4602ZM77.7094 63.4287C75.5524 63.4287 73.5221 62.7183 71.8397 61.3739C69.5864 59.5764 68.2937 56.8947 68.2937 54.0131C68.2937 52.8411 68.5065 51.698 68.925 50.6138C69.4081 49.3671 70.1372 48.2584 71.0891 47.318C71.3249 47.0836 71.5694 46.8665 71.8382 46.6523C73.2201 45.5479 74.878 44.8577 76.6338 44.6593C76.9961 44.619 77.3571 44.5989 77.7079 44.5989C78.4154 44.5989 79.1214 44.678 79.8059 44.8333C80.4299 44.9756 81.0382 45.1812 81.6148 45.4458C82.3108 45.7622 82.9708 46.1691 83.5761 46.6523C84.8818 47.6948 85.8898 49.0637 86.4894 50.6138C86.9093 51.6994 87.1207 52.8426 87.1207 54.0131C87.1207 56.8961 85.8279 59.5779 83.5747 61.3739C81.8923 62.7183 79.8634 63.4287 77.7065 63.4287H77.7094ZM77.7094 45.4602C77.3901 45.4602 77.0608 45.4789 76.7315 45.5148C75.1397 45.696 73.6342 46.3215 72.3789 47.3252C72.1345 47.5208 71.9116 47.7178 71.6973 47.9306C70.8317 48.7862 70.1702 49.7927 69.7302 50.9244C69.3492 51.9079 69.1565 52.9461 69.1565 54.0116C69.1565 56.6287 70.3298 59.066 72.3775 60.698C73.906 61.9188 75.748 62.5645 77.7079 62.5645C79.6678 62.5645 81.5113 61.9188 83.0384 60.698C85.086 59.066 86.2593 56.6301 86.2593 54.0116C86.2593 52.9475 86.0667 51.9094 85.6856 50.9229C85.1406 49.5152 84.2247 48.2714 83.0384 47.3238C82.4876 46.8838 81.8894 46.5156 81.2567 46.2281C80.7319 45.9879 80.1797 45.801 79.6146 45.6716C78.992 45.5307 78.3507 45.4588 77.7079 45.4588L77.7094 45.4602Z" fill="#CCD2D6"/>
<g opacity="0.5">
<path d="M77.7094 58.3489C80.1038 58.3489 82.0448 56.4079 82.0448 54.0135C82.0448 51.6191 80.1038 49.6781 77.7094 49.6781C75.315 49.6781 73.374 51.6191 73.374 54.0135C73.374 56.4079 75.315 58.3489 77.7094 58.3489Z" fill="#CCD2D6"/>
</g>
<g opacity="0.75">
<path d="M81.4384 45.8386C80.892 45.5884 80.3125 45.3914 79.7129 45.2547C79.0687 45.1081 78.3986 45.0304 77.7099 45.0304C77.3633 45.0304 77.0211 45.0506 76.6846 45.0879C76.525 40.7252 75.4983 35.4293 72.145 31.1874C67.9175 25.8383 60.7523 23.1263 50.8463 23.1263C45.9875 23.1263 41.76 23.7791 38.1953 25.0776V20.1052C41.9038 18.9793 46.127 18.4142 50.8463 18.4142C62.2822 18.4142 70.6985 21.7387 75.8636 28.2928C80.2291 33.8332 81.3694 40.5714 81.4384 45.84V45.8386Z" fill="#CCD2D6"/>
</g>
<path d="M81.8787 46.5161L81.259 46.2314C80.7355 45.9912 80.1834 45.8043 79.6183 45.6763C78.6865 45.4649 77.7274 45.4089 76.7338 45.5181L76.2722 45.5685L76.2549 45.1055C76.0507 39.5234 74.5538 34.932 71.8088 31.4565C67.6676 26.2167 60.6145 23.5594 50.848 23.5594C46.0597 23.5594 41.8537 24.2065 38.3451 25.4848L37.7656 25.6962V19.7877L38.0719 19.6942C41.8091 18.5597 46.1071 17.9845 50.848 17.9845C62.422 17.9845 70.9533 21.3637 76.2032 28.0271C80.7701 33.8234 81.8054 40.911 81.8701 45.8359L81.8787 46.5175V46.5161ZM77.7101 44.6007C78.4176 44.6007 79.1236 44.6798 79.8081 44.8351C80.2107 44.9272 80.6061 45.0451 80.9915 45.1889C80.8463 40.4393 79.7434 33.914 75.523 28.5605C70.4442 22.1143 62.1416 18.8458 50.8451 18.8458C46.3185 18.8458 42.2103 19.3779 38.6255 20.4276V24.4696C42.1082 23.2919 46.215 22.6966 50.8451 22.6966C60.8891 22.6966 68.168 25.4632 72.4818 30.9216C75.2685 34.4489 76.82 39.056 77.0947 44.6223C77.3018 44.6094 77.5059 44.6022 77.7087 44.6022L77.7101 44.6007Z" fill="#CCD2D6"/>
<g opacity="0.5">
<path d="M38.1952 10.1467V28.0864C38.1952 29.7875 36.8148 31.1679 35.1122 31.1679H30.1197V34.0754C30.1197 35.4112 28.5409 36.1216 27.5401 35.2344L26.9404 34.7009L23.3211 31.49L22.9588 31.1679H3.77093C2.06697 31.1679 0.687988 29.7875 0.687988 28.0864V10.1467C0.687988 8.4427 2.06841 7.06372 3.77093 7.06372H35.1108C36.8148 7.06372 38.1937 8.44414 38.1937 10.1467H38.1952Z" fill="#CCD2D6"/>
</g>
<path d="M28.5627 36.0601C28.091 36.0601 27.628 35.889 27.2542 35.5568L26.6545 35.0219L22.7966 31.5982H3.77262C1.83428 31.5982 0.258301 30.0222 0.258301 28.0853V10.1455C0.258301 8.20721 1.83428 6.63123 3.77262 6.63123H35.1139C37.0523 6.63123 38.6283 8.20864 38.6283 10.1455V28.0853C38.6283 30.0222 37.0523 31.5982 35.1139 31.5982H30.5528V34.0743C30.5528 34.8637 30.1056 35.5568 29.3852 35.8803C29.1192 35.9997 28.8402 36.0586 28.5641 36.0586L28.5627 36.0601ZM3.77118 7.49543C2.3088 7.49543 1.11962 8.6846 1.11962 10.147V28.0867C1.11962 29.5477 2.3088 30.7368 3.77118 30.7368H23.123L27.8265 34.9126C28.1658 35.2131 28.6145 35.2807 29.0286 35.0952C29.4413 34.9097 29.6886 34.5287 29.6886 34.0757V30.7368H35.1125C36.5749 30.7368 37.7641 29.5477 37.7641 28.0867V10.147C37.7641 8.6846 36.5749 7.49543 35.1125 7.49543H3.77118Z" fill="#CCD2D6"/>
<path d="M14.1704 17.3594C14.1704 15.3233 14.6305 13.7473 15.5522 12.6329C16.474 11.5185 17.7724 10.9606 19.4476 10.9606C21.1243 10.9606 22.4213 11.5142 23.3387 12.6228C24.2561 13.7315 24.7148 15.3075 24.7148 17.3508V20.1145C24.7148 22.1434 24.2546 23.7165 23.3329 24.8309C22.4112 25.9468 21.1099 26.5033 19.426 26.5033C17.7566 26.5033 16.4639 25.9496 15.5451 24.841C14.6276 23.7323 14.1689 22.1564 14.1689 20.1145V17.3608L14.1704 17.3594ZM17.6718 20.6422C17.679 21.7293 17.8242 22.5274 18.1075 23.0364C18.3922 23.5454 18.8307 23.7999 19.4275 23.7999C20.0444 23.7999 20.4944 23.5382 20.7777 23.0148C21.0624 22.4914 21.2033 21.666 21.2033 20.5372V16.6721C21.1832 15.6612 21.0351 14.9063 20.7619 14.4073C20.4887 13.9083 20.0501 13.6596 19.4476 13.6596C18.8451 13.6596 18.3807 13.9285 18.0974 14.4648C17.8141 15.0012 17.6718 15.8136 17.6718 16.9007V20.6408V20.6422Z" fill="#CCD2D6"/>
<path d="M61.3774 46.1599C61.363 46.1599 61.3486 46.1599 61.3328 46.1571C61.2062 46.1441 61.0768 46.1254 60.9474 46.1024C59.672 45.8695 58.7848 45.0125 58.513 43.7528C58.4627 43.5199 58.6108 43.2898 58.8437 43.2395C59.0767 43.1892 59.3067 43.3373 59.3571 43.5702C59.4721 44.1008 59.8517 45.024 61.1041 45.254C61.2106 45.2742 61.3184 45.2886 61.4219 45.3001C61.6592 45.3245 61.8317 45.5359 61.8073 45.7731C61.7843 45.9946 61.5974 46.1614 61.3788 46.1614L61.3774 46.1599ZM47.4006 45.615C47.3762 45.615 47.3531 45.6135 47.3287 45.6092C47.0943 45.5704 46.9347 45.3475 46.975 45.1131C47.1763 43.9096 47.5084 42.765 47.9643 41.7081C48.0592 41.4895 48.3122 41.3889 48.5308 41.4823C48.7494 41.5772 48.85 41.8303 48.7566 42.0489C48.3295 43.0425 48.016 44.121 47.8262 45.2555C47.7903 45.4669 47.6077 45.6164 47.4006 45.6164V45.615ZM64.4804 44.9794C64.3755 44.9794 64.2705 44.9406 64.1871 44.8644C64.0131 44.7019 64.003 44.4287 64.1655 44.2547C64.8298 43.5415 65.2972 42.4961 65.4482 41.3889C65.4798 41.153 65.6984 40.9877 65.9342 41.0193C66.17 41.0509 66.3354 41.2695 66.3037 41.5053C66.1283 42.7851 65.579 44.0002 64.7968 44.8414C64.7119 44.9319 64.5969 44.9794 64.4804 44.9794ZM82.239 43.2654C81.5142 43.2654 80.768 43.2222 80.0188 43.1374C79.9268 43.1273 79.8347 43.1158 79.7427 43.1043C79.5069 43.0741 79.3387 42.8584 79.3689 42.6212C79.399 42.3854 79.6147 42.2186 79.852 42.2473C79.9397 42.2588 80.0274 42.2689 80.1151 42.2789C81.172 42.3983 82.216 42.4299 83.2153 42.3739C83.4483 42.3595 83.6568 42.5421 83.6712 42.7808C83.6841 43.018 83.5029 43.2222 83.2642 43.2352C82.9263 43.2539 82.5812 43.2639 82.239 43.2639V43.2654ZM86.6376 42.683C86.4493 42.683 86.2753 42.5579 86.2221 42.3667C86.1574 42.1366 86.2925 41.8993 86.5212 41.8346C87.6082 41.5312 88.6464 41.1042 89.6084 40.5664C89.8169 40.4499 90.0786 40.5247 90.1951 40.7317C90.3116 40.9388 90.2368 41.2019 90.0297 41.3184C89.0074 41.8907 87.9044 42.3437 86.7527 42.6658C86.7138 42.6773 86.675 42.6816 86.6362 42.6816L86.6376 42.683ZM76.4225 42.4098C76.3851 42.4098 76.3463 42.4041 76.3089 42.394C75.2146 42.0935 74.1592 41.7498 72.993 41.363C72.7673 41.2882 72.6436 41.0438 72.7198 40.818C72.7946 40.5922 73.039 40.4686 73.2648 40.5448C74.4195 40.9273 75.4634 41.2681 76.5375 41.5629C76.7676 41.6261 76.9028 41.8634 76.8395 42.0935C76.7863 42.2847 76.6138 42.4112 76.4239 42.4112L76.4225 42.4098ZM59.9423 40.9517C59.8287 40.9517 59.7151 40.9072 59.6303 40.818C59.4663 40.6455 59.4721 40.3722 59.6446 40.2083C60.6584 39.242 62.01 38.8452 62.9634 38.6812C63.1978 38.641 63.4207 38.7991 63.4609 39.0335C63.5012 39.2679 63.343 39.4908 63.1086 39.531C61.9267 39.7338 60.9071 40.1954 60.2385 40.8324C60.1551 40.9115 60.0473 40.9517 59.9409 40.9517H59.9423ZM69.8396 40.342C69.8008 40.342 69.7605 40.3363 69.7203 40.3248C68.4836 39.9711 67.4325 39.7367 66.4116 39.5886C66.1758 39.5541 66.0133 39.3355 66.0463 39.0997C66.0809 38.8638 66.3009 38.7014 66.5352 38.7359C67.5964 38.8912 68.6835 39.1327 69.9575 39.4965C70.1862 39.5627 70.3199 39.8014 70.2538 40.03C70.1991 40.2198 70.0266 40.3435 69.8396 40.3435V40.342ZM50.1471 39.3686C50.0507 39.3686 49.9529 39.3355 49.8724 39.2693C49.6898 39.1169 49.6639 38.8452 49.8163 38.6625C50.0234 38.4138 50.242 38.1708 50.4692 37.9393C51.0702 37.3267 51.7518 36.7774 52.4981 36.3043C52.6994 36.1763 52.9654 36.2367 53.0934 36.438C53.2214 36.6394 53.161 36.9054 52.9597 37.0334C52.2695 37.4705 51.6382 37.9795 51.0846 38.5432C50.8747 38.7574 50.6719 38.9818 50.4807 39.2133C50.3958 39.3154 50.2722 39.3686 50.1485 39.3686H50.1471ZM92.595 39.3369C92.48 39.3369 92.3664 39.2909 92.2815 39.2018C92.1176 39.0278 92.1262 38.756 92.2988 38.5921C93.1055 37.83 93.823 36.9658 94.4313 36.0225C94.5607 35.8226 94.8267 35.7651 95.028 35.8931C95.2279 36.0225 95.2854 36.2885 95.1574 36.4898C94.5118 37.4906 93.7497 38.4095 92.8927 39.219C92.8093 39.2981 92.7029 39.3369 92.5964 39.3369H92.595ZM65.1922 38.5791C65.0527 38.5791 64.9161 38.5116 64.8327 38.3879C64.2791 37.5611 63.4365 36.8435 62.3997 36.3129C62.1869 36.2051 62.1035 35.9448 62.2114 35.732C62.3192 35.5192 62.5795 35.4358 62.7923 35.5436C63.9599 36.1404 64.9147 36.9571 65.5503 37.9062C65.6825 38.1046 65.6293 38.3721 65.4324 38.5044C65.359 38.5532 65.2756 38.5777 65.1922 38.5777V38.5791ZM55.8772 35.7205C55.686 35.7205 55.5106 35.5925 55.4602 35.3984C55.3998 35.1683 55.5379 34.9325 55.768 34.8721C56.6609 34.6377 57.5668 34.517 58.4627 34.5155H58.4799C58.7632 34.5155 59.0522 34.5285 59.3369 34.5543C59.5742 34.5759 59.7496 34.7859 59.7266 35.0231C59.705 35.2604 59.4937 35.4358 59.2578 35.4128C58.999 35.3898 58.7373 35.3768 58.4799 35.3768H58.4627C57.6416 35.3783 56.809 35.489 55.9865 35.7047C55.9491 35.7148 55.9132 35.7191 55.8772 35.7191V35.7205ZM96.3049 33.5924C96.2574 33.5924 96.21 33.5852 96.1625 33.5679C95.9382 33.4888 95.8189 33.2429 95.898 33.0186C96.2689 31.9589 96.5134 30.8617 96.6241 29.7574C96.6486 29.5201 96.8599 29.349 97.0958 29.3706C97.333 29.395 97.5056 29.6064 97.4826 29.8422C97.3646 31.0141 97.1058 32.1789 96.7118 33.3033C96.65 33.4816 96.4832 33.5924 96.3049 33.5924ZM96.9692 26.7895C96.7593 26.7895 96.5767 26.6371 96.5436 26.4228C96.3725 25.307 96.0576 24.2357 95.6046 23.2363C95.5068 23.0192 95.6032 22.7632 95.8203 22.6655C96.0374 22.5677 96.2934 22.664 96.3912 22.8812C96.8758 23.9524 97.2137 25.0999 97.3963 26.2919C97.4322 26.5278 97.2712 26.7478 97.0354 26.7837C97.0138 26.7866 96.9908 26.7895 96.9692 26.7895ZM94.1451 20.5948C94.0243 20.5948 93.9035 20.5445 93.8187 20.4453C93.104 19.6199 92.2614 18.8866 91.3152 18.2654C91.1168 18.1345 91.0607 17.8671 91.1916 17.6686C91.3224 17.4688 91.5899 17.4141 91.7883 17.545C92.8006 18.2093 93.7037 18.9944 94.4715 19.8816C94.6268 20.0614 94.6081 20.3346 94.4284 20.4899C94.3464 20.5603 94.2458 20.5948 94.1465 20.5948H94.1451ZM88.4653 16.8159C88.4178 16.8159 88.3675 16.8073 88.32 16.79C87.5536 16.5168 86.734 16.2911 85.8842 16.1228C85.6512 16.0768 85.4988 15.8496 85.5448 15.6153C85.5908 15.3823 85.818 15.2299 86.0524 15.2773C86.9439 15.4556 87.8038 15.6915 88.609 15.9791C88.8334 16.0596 88.9498 16.3055 88.8708 16.5298C88.8075 16.7066 88.6421 16.8159 88.4638 16.8159H88.4653Z" fill="#CCD2D6"/>
<g opacity="0.5">
<path d="M79.215 8.51998C80.3605 5.43144 80.0971 2.48553 78.6265 1.9401C77.156 1.39466 75.0352 3.45625 73.8896 6.54479C72.7441 9.63333 73.0076 12.5792 74.4781 13.1247C75.9487 13.6701 78.0694 11.6085 79.215 8.51998Z" fill="#CCD2D6"/>
</g>
<g opacity="0.5">
<path d="M78.8042 16.688C78.0564 16.688 77.29 16.5845 76.5265 16.3803C73.3875 15.542 71.2651 13.2413 71.7957 11.2512C72.1839 9.79454 73.9037 8.85413 76.1742 8.85413C76.9219 8.85413 77.6883 8.95766 78.4519 9.16184C81.5909 10.0002 83.7133 12.3009 83.1827 14.291C82.7945 15.7476 81.0747 16.688 78.8042 16.688Z" fill="#CCD2D6"/>
<path d="M76.1755 8.92761C76.9175 8.92761 77.6767 9.0297 78.4345 9.23245C81.5361 10.0607 83.6355 12.3211 83.1136 14.2739C82.7339 15.6974 81.0415 16.6177 78.8041 16.6177C78.0621 16.6177 77.3014 16.5156 76.5451 16.3129C73.4434 15.4846 71.3455 13.2242 71.866 11.2714C72.2456 9.84789 73.9381 8.92761 76.1755 8.92761ZM76.1755 8.78381C73.9467 8.78381 72.1349 9.70553 71.728 11.2341C71.1859 13.2659 73.327 15.6011 76.5091 16.4509C77.2971 16.6608 78.0736 16.7601 78.8055 16.7601C81.0343 16.7601 82.8461 15.8383 83.253 14.3098C83.7951 12.278 81.654 9.94279 78.4719 9.09297C77.6839 8.88303 76.9074 8.78381 76.1755 8.78381Z" fill="#CCD2D6"/>
</g>
<path d="M83.2502 14.3071C83.7924 12.2753 81.6517 9.93971 78.4689 9.09045C75.2861 8.2412 72.2665 9.19986 71.7243 11.2317C71.1822 13.2635 73.3228 15.5991 76.5056 16.4484C79.6884 17.2976 82.7081 16.3389 83.2502 14.3071Z" fill="#CCD2D6"/>
<g opacity="0.5">
<path d="M80.3006 11.9087C82.9784 9.99019 84.4087 7.40133 83.4952 6.12634C82.5817 4.85136 79.6704 5.37305 76.9926 7.29158C74.3148 9.21011 72.8846 11.799 73.798 13.074C74.7115 14.3489 77.6228 13.8272 80.3006 11.9087Z" fill="#CCD2D6"/>
</g>
</svg>
