<svg width="35" height="35" viewBox="0 0 35 35" fill="none" xmlns="http://www.w3.org/2000/svg">
<g clip-path="url(#clip0_189_754)">
<path d="M9.4225 30.8651L17.4998 25.7483L25.5771 30.9324L23.4616 21.2374L30.5773 14.7741L21.2179 13.8989L17.4998 4.74247L13.7817 13.8315L4.42227 14.7068L11.538 21.2374L9.4225 30.8651ZM17.4998 28.918L8.19167 34.8212C7.91816 34.963 7.6643 35.0205 7.4301 34.9936C7.19761 34.9648 6.97111 34.8804 6.75058 34.7404C6.52835 34.5968 6.36082 34.3939 6.248 34.1318C6.13517 33.8697 6.12491 33.5833 6.21723 33.2727L8.69426 22.2042L0.501585 14.7445C0.270806 14.547 0.118662 14.3109 0.0451546 14.0362C-0.028353 13.7615 -0.0121128 13.4985 0.0938749 13.2471C0.199863 12.9958 0.340894 12.7893 0.516971 12.6277C0.694756 12.4715 0.934084 12.3656 1.23495 12.31L12.0457 11.3189L16.2613 0.837541C16.3775 0.541305 16.545 0.327655 16.7639 0.196593C16.9827 0.0655309 17.228 0 17.4998 0C17.7716 0 18.0178 0.0655309 18.2383 0.196593C18.4588 0.327655 18.6255 0.541305 18.7383 0.837541L22.9539 11.3189L33.7621 12.31C34.0646 12.3638 34.3048 12.4706 34.4826 12.6304C34.6604 12.7884 34.8023 12.994 34.9083 13.2471C35.0125 13.4985 35.0279 13.7615 34.9544 14.0362C34.8809 14.3109 34.7288 14.547 34.498 14.7445L26.3053 22.2042L28.7823 33.2727C28.8781 33.5797 28.8687 33.8652 28.7541 34.1291C28.6396 34.393 28.4712 34.5959 28.249 34.7377C28.0302 34.8813 27.8037 34.9666 27.5695 34.9936C27.337 35.0205 27.084 34.963 26.8105 34.8212L17.4998 28.918Z" fill="#4361EE"/>
</g>
<defs>
<clipPath id="clip0_189_754">
<rect width="35" height="35" fill="white"/>
</clipPath>
</defs>
</svg>
